<svg xmlns="http://www.w3.org/2000/svg" xmlns:xlink="http://www.w3.org/1999/xlink" width="300" zoomAndPan="magnify" viewBox="0 0 1024.5 576" height="768" preserveAspectRatio="xMidYMid meet" version="1.0"><defs><clipPath id="f7e3f866b2"><path d="M 401 177 L 626.992188 177 L 626.992188 402.992188 L 401 402.992188 Z M 401 177 " clip-rule="nonzero"/></clipPath><clipPath id="3f5343008e"><path d="M 396.855469 172.855469 L 622 172.855469 L 622 398 L 396.855469 398 Z M 396.855469 172.855469 " clip-rule="nonzero"/></clipPath></defs><g clip-path="url(#f7e3f866b2)"><path fill="#000000" d="M 626.992188 290.480469 C 626.992188 292.324219 626.949219 294.164062 626.859375 296.003906 C 626.769531 297.84375 626.632812 299.679688 626.453125 301.511719 C 626.273438 303.34375 626.046875 305.167969 625.777344 306.992188 C 625.507812 308.8125 625.191406 310.625 624.832031 312.433594 C 624.472656 314.238281 624.070312 316.035156 623.621094 317.820312 C 623.175781 319.605469 622.683594 321.378906 622.148438 323.140625 C 621.613281 324.90625 621.039062 326.652344 620.417969 328.386719 C 619.796875 330.121094 619.132812 331.835938 618.429688 333.539062 C 617.726562 335.238281 616.980469 336.921875 616.191406 338.585938 C 615.40625 340.25 614.578125 341.894531 613.707031 343.519531 C 612.839844 345.144531 611.933594 346.746094 610.988281 348.324219 C 610.039062 349.902344 609.054688 351.460938 608.03125 352.992188 C 607.007812 354.519531 605.949219 356.027344 604.851562 357.503906 C 603.753906 358.984375 602.625 360.433594 601.453125 361.859375 C 600.285156 363.28125 599.085938 364.675781 597.847656 366.039062 C 596.613281 367.40625 595.34375 368.738281 594.039062 370.039062 C 592.738281 371.34375 591.40625 372.609375 590.039062 373.847656 C 588.675781 375.085938 587.28125 376.285156 585.859375 377.453125 C 584.4375 378.621094 582.984375 379.753906 581.503906 380.851562 C 580.027344 381.949219 578.519531 383.007812 576.992188 384.03125 C 575.460938 385.054688 573.902344 386.039062 572.324219 386.988281 C 570.746094 387.933594 569.144531 388.839844 567.519531 389.707031 C 565.894531 390.578125 564.25 391.402344 562.585938 392.191406 C 560.921875 392.980469 559.238281 393.726562 557.539062 394.429688 C 555.835938 395.132812 554.121094 395.796875 552.386719 396.417969 C 550.652344 397.039062 548.90625 397.613281 547.144531 398.148438 C 545.378906 398.683594 543.605469 399.175781 541.820312 399.621094 C 540.035156 400.070312 538.238281 400.472656 536.433594 400.832031 C 534.625 401.191406 532.8125 401.507812 530.992188 401.777344 C 529.167969 402.046875 527.34375 402.273438 525.511719 402.453125 C 523.679688 402.632812 521.84375 402.769531 520.003906 402.859375 C 518.164062 402.949219 516.324219 402.992188 514.480469 402.992188 C 512.640625 402.992188 510.800781 402.949219 508.960938 402.859375 C 507.121094 402.769531 505.285156 402.632812 503.453125 402.453125 C 501.621094 402.273438 499.792969 402.046875 497.972656 401.777344 C 496.152344 401.507812 494.339844 401.191406 492.53125 400.832031 C 490.726562 400.472656 488.929688 400.070312 487.144531 399.621094 C 485.359375 399.175781 483.582031 398.683594 481.820312 398.148438 C 480.058594 397.613281 478.3125 397.039062 476.578125 396.417969 C 474.84375 395.796875 473.128906 395.132812 471.425781 394.429688 C 469.726562 393.726562 468.042969 392.980469 466.378906 392.191406 C 464.710938 391.402344 463.070312 390.578125 461.445312 389.707031 C 459.820312 388.839844 458.21875 387.933594 456.640625 386.988281 C 455.058594 386.039062 453.503906 385.054688 451.972656 384.03125 C 450.441406 383.007812 448.9375 381.949219 447.460938 380.851562 C 445.980469 379.753906 444.527344 378.621094 443.105469 377.453125 C 441.683594 376.285156 440.289062 375.085938 438.925781 373.847656 C 437.558594 372.609375 436.226562 371.34375 434.925781 370.039062 C 433.621094 368.738281 432.351562 367.40625 431.117188 366.039062 C 429.878906 364.675781 428.675781 363.28125 427.507812 361.859375 C 426.339844 360.433594 425.207031 358.984375 424.113281 357.503906 C 423.015625 356.027344 421.957031 354.519531 420.933594 352.992188 C 419.910156 351.460938 418.925781 349.902344 417.976562 348.324219 C 417.03125 346.746094 416.125 345.144531 415.253906 343.519531 C 414.386719 341.894531 413.558594 340.25 412.773438 338.585938 C 411.984375 336.921875 411.238281 335.238281 410.535156 333.539062 C 409.832031 331.835938 409.167969 330.121094 408.546875 328.386719 C 407.925781 326.652344 407.351562 324.90625 406.816406 323.140625 C 406.28125 321.378906 405.789062 319.605469 405.34375 317.820312 C 404.894531 316.035156 404.492188 314.238281 404.132812 312.433594 C 403.773438 310.625 403.457031 308.8125 403.1875 306.992188 C 402.917969 305.167969 402.691406 303.34375 402.511719 301.511719 C 402.332031 299.679688 402.195312 297.84375 402.105469 296.003906 C 402.015625 294.164062 401.96875 292.324219 401.96875 290.480469 C 401.96875 288.640625 402.015625 286.800781 402.105469 284.960938 C 402.195312 283.121094 402.332031 281.285156 402.511719 279.453125 C 402.691406 277.621094 402.917969 275.792969 403.1875 273.972656 C 403.457031 272.152344 403.773438 270.339844 404.132812 268.53125 C 404.492188 266.726562 404.894531 264.929688 405.34375 263.144531 C 405.789062 261.359375 406.28125 259.582031 406.816406 257.820312 C 407.351562 256.058594 407.925781 254.3125 408.546875 252.578125 C 409.167969 250.84375 409.832031 249.125 410.535156 247.425781 C 411.238281 245.722656 411.984375 244.042969 412.773438 242.378906 C 413.558594 240.710938 414.386719 239.070312 415.253906 237.445312 C 416.125 235.820312 417.03125 234.21875 417.976562 232.640625 C 418.925781 231.058594 419.910156 229.503906 420.933594 227.972656 C 421.957031 226.441406 423.015625 224.9375 424.113281 223.457031 C 425.207031 221.980469 426.339844 220.527344 427.507812 219.105469 C 428.675781 217.683594 429.878906 216.289062 431.117188 214.925781 C 432.351562 213.558594 433.621094 212.226562 434.925781 210.925781 C 436.226562 209.621094 437.558594 208.351562 438.925781 207.117188 C 440.289062 205.878906 441.683594 204.675781 443.105469 203.507812 C 444.527344 202.339844 445.980469 201.207031 447.460938 200.113281 C 448.9375 199.015625 450.441406 197.953125 451.972656 196.933594 C 453.503906 195.910156 455.058594 194.925781 456.640625 193.976562 C 458.21875 193.03125 459.820312 192.125 461.445312 191.253906 C 463.070312 190.386719 464.710938 189.558594 466.378906 188.773438 C 468.042969 187.984375 469.726562 187.238281 471.425781 186.535156 C 473.128906 185.832031 474.84375 185.167969 476.578125 184.546875 C 478.3125 183.925781 480.058594 183.351562 481.820312 182.816406 C 483.582031 182.28125 485.359375 181.789062 487.144531 181.34375 C 488.929688 180.894531 490.726562 180.492188 492.53125 180.132812 C 494.339844 179.773438 496.152344 179.457031 497.972656 179.1875 C 499.792969 178.917969 501.621094 178.691406 503.453125 178.511719 C 505.285156 178.332031 507.121094 178.195312 508.960938 178.105469 C 510.800781 178.015625 512.640625 177.96875 514.480469 177.96875 C 516.324219 177.96875 518.164062 178.015625 520.003906 178.105469 C 521.84375 178.195312 523.679688 178.332031 525.511719 178.511719 C 527.34375 178.691406 529.167969 178.917969 530.992188 179.1875 C 532.8125 179.457031 534.625 179.773438 536.433594 180.132812 C 538.238281 180.492188 540.035156 180.894531 541.820312 181.34375 C 543.605469 181.789062 545.378906 182.28125 547.144531 182.816406 C 548.90625 183.351562 550.652344 183.925781 552.386719 184.546875 C 554.121094 185.167969 555.835938 185.832031 557.539062 186.535156 C 559.238281 187.238281 560.921875 187.984375 562.585938 188.773438 C 564.25 189.558594 565.894531 190.386719 567.519531 191.253906 C 569.144531 192.125 570.746094 193.03125 572.324219 193.976562 C 573.902344 194.925781 575.460938 195.910156 576.992188 196.933594 C 578.519531 197.953125 580.027344 199.015625 581.503906 200.113281 C 582.984375 201.207031 584.4375 202.339844 585.859375 203.507812 C 587.28125 204.675781 588.675781 205.878906 590.039062 207.117188 C 591.40625 208.351562 592.738281 209.621094 594.039062 210.925781 C 595.34375 212.226562 596.613281 213.558594 597.847656 214.925781 C 599.085938 216.289062 600.285156 217.683594 601.453125 219.105469 C 602.625 220.527344 603.753906 221.980469 604.851562 223.457031 C 605.949219 224.9375 607.007812 226.441406 608.03125 227.972656 C 609.054688 229.503906 610.039062 231.058594 610.988281 232.640625 C 611.933594 234.21875 612.839844 235.820312 613.707031 237.445312 C 614.578125 239.070312 615.40625 240.710938 616.191406 242.378906 C 616.980469 244.042969 617.726562 245.722656 618.429688 247.425781 C 619.132812 249.125 619.796875 250.84375 620.417969 252.578125 C 621.039062 254.3125 621.613281 256.058594 622.148438 257.820312 C 622.683594 259.582031 623.175781 261.359375 623.621094 263.144531 C 624.070312 264.929688 624.472656 266.726562 624.832031 268.53125 C 625.191406 270.339844 625.507812 272.152344 625.777344 273.972656 C 626.046875 275.792969 626.273438 277.621094 626.453125 279.453125 C 626.632812 281.285156 626.769531 283.121094 626.859375 284.960938 C 626.949219 286.800781 626.992188 288.640625 626.992188 290.480469 Z M 626.992188 290.480469 " fill-opacity="0.35" fill-rule="nonzero"/></g><g clip-path="url(#3f5343008e)"><path fill="#f2f2f2" d="M 621.878906 285.367188 C 621.878906 287.210938 621.835938 289.050781 621.746094 290.886719 C 621.652344 292.726562 621.519531 294.5625 621.339844 296.394531 C 621.15625 298.230469 620.933594 300.054688 620.660156 301.875 C 620.390625 303.699219 620.078125 305.511719 619.71875 307.316406 C 619.359375 309.125 618.957031 310.921875 618.507812 312.707031 C 618.058594 314.492188 617.570312 316.265625 617.035156 318.027344 C 616.5 319.789062 615.921875 321.539062 615.304688 323.273438 C 614.683594 325.003906 614.019531 326.722656 613.316406 328.425781 C 612.609375 330.125 611.863281 331.808594 611.078125 333.472656 C 610.289062 335.136719 609.460938 336.78125 608.59375 338.40625 C 607.726562 340.03125 606.820312 341.632812 605.871094 343.210938 C 604.925781 344.789062 603.941406 346.34375 602.917969 347.875 C 601.894531 349.40625 600.835938 350.914062 599.738281 352.390625 C 598.640625 353.871094 597.507812 355.320312 596.339844 356.746094 C 595.171875 358.167969 593.96875 359.5625 592.734375 360.925781 C 591.496094 362.289062 590.226562 363.625 588.925781 364.925781 C 587.625 366.226562 586.289062 367.496094 584.925781 368.734375 C 583.5625 369.96875 582.167969 371.171875 580.746094 372.339844 C 579.320312 373.507812 577.871094 374.640625 576.390625 375.738281 C 574.914062 376.835938 573.40625 377.894531 571.875 378.917969 C 570.34375 379.941406 568.789062 380.925781 567.210938 381.871094 C 565.632812 382.820312 564.03125 383.726562 562.40625 384.59375 C 560.78125 385.460938 559.136719 386.289062 557.472656 387.078125 C 555.808594 387.863281 554.125 388.609375 552.425781 389.316406 C 550.722656 390.019531 549.003906 390.683594 547.273438 391.300781 C 545.539062 391.921875 543.789062 392.5 542.027344 393.035156 C 540.265625 393.570312 538.492188 394.058594 536.707031 394.507812 C 534.921875 394.957031 533.125 395.359375 531.316406 395.71875 C 529.511719 396.078125 527.699219 396.390625 525.878906 396.660156 C 524.054688 396.933594 522.230469 397.15625 520.394531 397.339844 C 518.5625 397.519531 516.726562 397.652344 514.890625 397.746094 C 513.050781 397.835938 511.210938 397.878906 509.367188 397.878906 C 507.527344 397.878906 505.6875 397.835938 503.847656 397.746094 C 502.007812 397.652344 500.171875 397.519531 498.339844 397.339844 C 496.507812 397.15625 494.679688 396.933594 492.859375 396.660156 C 491.039062 396.390625 489.222656 396.078125 487.417969 395.71875 C 485.613281 395.359375 483.816406 394.957031 482.03125 394.507812 C 480.242188 394.058594 478.46875 393.570312 476.707031 393.035156 C 474.945312 392.5 473.199219 391.921875 471.464844 391.300781 C 469.730469 390.683594 468.011719 390.019531 466.3125 389.316406 C 464.609375 388.609375 462.925781 387.863281 461.261719 387.078125 C 459.597656 386.289062 457.953125 385.460938 456.332031 384.59375 C 454.707031 383.726562 453.105469 382.820312 451.527344 381.871094 C 449.945312 380.925781 448.390625 379.941406 446.859375 378.917969 C 445.328125 377.894531 443.824219 376.835938 442.34375 375.738281 C 440.867188 374.640625 439.414062 373.507812 437.992188 372.339844 C 436.566406 371.171875 435.175781 369.96875 433.808594 368.734375 C 432.445312 367.496094 431.113281 366.226562 429.808594 364.925781 C 428.507812 363.625 427.238281 362.289062 426.003906 360.925781 C 424.765625 359.5625 423.5625 358.167969 422.394531 356.746094 C 421.226562 355.320312 420.09375 353.871094 418.996094 352.390625 C 417.902344 350.914062 416.839844 349.40625 415.816406 347.875 C 414.796875 346.34375 413.808594 344.789062 412.863281 343.210938 C 411.917969 341.632812 411.007812 340.03125 410.140625 338.40625 C 409.273438 336.78125 408.445312 335.136719 407.660156 333.472656 C 406.871094 331.808594 406.125 330.125 405.421875 328.425781 C 404.714844 326.722656 404.054688 325.003906 403.433594 323.273438 C 402.8125 321.539062 402.234375 319.789062 401.699219 318.027344 C 401.167969 316.265625 400.675781 314.492188 400.226562 312.707031 C 399.78125 310.921875 399.378906 309.125 399.019531 307.316406 C 398.660156 305.511719 398.34375 303.699219 398.074219 301.875 C 397.804688 300.054688 397.578125 298.226562 397.398438 296.394531 C 397.21875 294.5625 397.082031 292.726562 396.992188 290.886719 C 396.902344 289.050781 396.855469 287.210938 396.855469 285.367188 C 396.855469 283.527344 396.902344 281.6875 396.992188 279.847656 C 397.082031 278.007812 397.21875 276.171875 397.398438 274.339844 C 397.578125 272.507812 397.804688 270.679688 398.074219 268.859375 C 398.34375 267.039062 398.660156 265.222656 399.019531 263.417969 C 399.378906 261.613281 399.78125 259.816406 400.226562 258.03125 C 400.675781 256.242188 401.167969 254.46875 401.699219 252.707031 C 402.234375 250.945312 402.8125 249.199219 403.433594 247.464844 C 404.054688 245.730469 404.714844 244.011719 405.421875 242.3125 C 406.125 240.609375 406.871094 238.925781 407.660156 237.261719 C 408.445312 235.597656 409.273438 233.953125 410.140625 232.332031 C 411.007812 230.707031 411.917969 229.105469 412.863281 227.523438 C 413.808594 225.945312 414.796875 224.390625 415.816406 222.859375 C 416.839844 221.328125 417.902344 219.824219 418.996094 218.34375 C 420.09375 216.867188 421.226562 215.414062 422.394531 213.992188 C 423.5625 212.566406 424.765625 211.175781 426.003906 209.808594 C 427.238281 208.445312 428.507812 207.113281 429.808594 205.808594 C 431.113281 204.507812 432.445312 203.238281 433.808594 202.003906 C 435.175781 200.765625 436.566406 199.5625 437.992188 198.394531 C 439.414062 197.226562 440.867188 196.09375 442.34375 194.996094 C 443.824219 193.902344 445.328125 192.839844 446.859375 191.816406 C 448.390625 190.792969 449.945312 189.808594 451.527344 188.863281 C 453.105469 187.917969 454.707031 187.007812 456.332031 186.140625 C 457.953125 185.273438 459.597656 184.445312 461.261719 183.660156 C 462.925781 182.871094 464.609375 182.125 466.3125 181.421875 C 468.011719 180.714844 469.730469 180.054688 471.464844 179.433594 C 473.199219 178.8125 474.945312 178.234375 476.707031 177.699219 C 478.46875 177.167969 480.242188 176.675781 482.03125 176.226562 C 483.816406 175.78125 485.613281 175.378906 487.417969 175.019531 C 489.222656 174.660156 491.039062 174.34375 492.859375 174.074219 C 494.679688 173.804688 496.507812 173.578125 498.339844 173.398438 C 500.171875 173.21875 502.007812 173.082031 503.847656 172.992188 C 505.6875 172.902344 507.527344 172.855469 509.367188 172.855469 C 511.210938 172.855469 513.050781 172.902344 514.890625 172.992188 C 516.726562 173.082031 518.5625 173.21875 520.394531 173.398438 C 522.230469 173.578125 524.054688 173.804688 525.878906 174.074219 C 527.699219 174.34375 529.511719 174.660156 531.316406 175.019531 C 533.125 175.378906 534.921875 175.78125 536.707031 176.226562 C 538.492188 176.675781 540.265625 177.167969 542.027344 177.699219 C 543.789062 178.234375 545.539062 178.8125 547.273438 179.433594 C 549.003906 180.054688 550.722656 180.714844 552.425781 181.421875 C 554.125 182.125 555.808594 182.871094 557.472656 183.660156 C 559.136719 184.445312 560.78125 185.273438 562.40625 186.140625 C 564.03125 187.007812 565.632812 187.917969 567.210938 188.863281 C 568.789062 189.808594 570.34375 190.792969 571.875 191.816406 C 573.40625 192.839844 574.914062 193.902344 576.390625 194.996094 C 577.871094 196.09375 579.320312 197.226562 580.746094 198.394531 C 582.167969 199.5625 583.5625 200.765625 584.925781 202.003906 C 586.289062 203.238281 587.625 204.507812 588.925781 205.808594 C 590.226562 207.113281 591.496094 208.445312 592.734375 209.808594 C 593.96875 211.175781 595.171875 212.566406 596.339844 213.992188 C 597.507812 215.414062 598.640625 216.867188 599.738281 218.34375 C 600.835938 219.824219 601.894531 221.328125 602.917969 222.859375 C 603.941406 224.390625 604.925781 225.945312 605.871094 227.523438 C 606.820312 229.105469 607.726562 230.707031 608.59375 232.332031 C 609.460938 233.953125 610.289062 235.597656 611.078125 237.261719 C 611.863281 238.925781 612.609375 240.609375 613.316406 242.3125 C 614.019531 244.011719 614.683594 245.730469 615.304688 247.464844 C 615.921875 249.199219 616.5 250.945312 617.035156 252.707031 C 617.570312 254.46875 618.058594 256.242188 618.507812 258.03125 C 618.957031 259.816406 619.359375 261.613281 619.71875 263.417969 C 620.078125 265.222656 620.390625 267.039062 620.660156 268.859375 C 620.933594 270.679688 621.15625 272.507812 621.339844 274.339844 C 621.519531 276.171875 621.652344 278.007812 621.746094 279.847656 C 621.835938 281.6875 621.878906 283.527344 621.878906 285.367188 Z M 621.878906 285.367188 " fill-opacity="1" fill-rule="nonzero"/></g><path fill="#f2f2f2" d="M 605.257812 285.367188 C 605.257812 286.9375 605.21875 288.503906 605.144531 290.074219 C 605.066406 291.640625 604.949219 293.207031 604.796875 294.765625 C 604.644531 296.328125 604.449219 297.886719 604.222656 299.4375 C 603.992188 300.992188 603.722656 302.535156 603.417969 304.074219 C 603.109375 305.613281 602.765625 307.144531 602.386719 308.667969 C 602.003906 310.191406 601.585938 311.703125 601.128906 313.203125 C 600.675781 314.707031 600.183594 316.195312 599.652344 317.671875 C 599.125 319.148438 598.558594 320.613281 597.960938 322.0625 C 597.359375 323.511719 596.722656 324.949219 596.050781 326.367188 C 595.382812 327.785156 594.675781 329.1875 593.9375 330.570312 C 593.195312 331.953125 592.421875 333.320312 591.617188 334.664062 C 590.808594 336.011719 589.96875 337.335938 589.097656 338.640625 C 588.226562 339.945312 587.324219 341.230469 586.386719 342.488281 C 585.453125 343.75 584.488281 344.988281 583.492188 346.199219 C 582.496094 347.414062 581.472656 348.601562 580.417969 349.765625 C 579.363281 350.925781 578.28125 352.0625 577.171875 353.171875 C 576.0625 354.28125 574.925781 355.363281 573.765625 356.417969 C 572.601562 357.472656 571.414062 358.496094 570.199219 359.492188 C 568.988281 360.488281 567.75 361.453125 566.488281 362.386719 C 565.230469 363.324219 563.945312 364.226562 562.640625 365.097656 C 561.335938 365.96875 560.011719 366.808594 558.664062 367.617188 C 557.320312 368.421875 555.953125 369.195312 554.570312 369.9375 C 553.1875 370.675781 551.785156 371.382812 550.367188 372.050781 C 548.949219 372.722656 547.515625 373.359375 546.0625 373.960938 C 544.613281 374.558594 543.148438 375.125 541.671875 375.652344 C 540.195312 376.183594 538.707031 376.675781 537.203125 377.128906 C 535.703125 377.585938 534.191406 378.003906 532.667969 378.386719 C 531.144531 378.765625 529.613281 379.109375 528.074219 379.417969 C 526.535156 379.722656 524.992188 379.992188 523.4375 380.222656 C 521.886719 380.449219 520.328125 380.644531 518.765625 380.796875 C 517.207031 380.949219 515.640625 381.066406 514.074219 381.144531 C 512.503906 381.21875 510.9375 381.257812 509.367188 381.257812 C 507.796875 381.257812 506.230469 381.21875 504.664062 381.144531 C 503.09375 381.066406 501.53125 380.949219 499.96875 380.796875 C 498.40625 380.644531 496.851562 380.449219 495.296875 380.222656 C 493.746094 379.992188 492.199219 379.722656 490.660156 379.417969 C 489.121094 379.109375 487.589844 378.765625 486.070312 378.386719 C 484.546875 378.003906 483.035156 377.585938 481.53125 377.128906 C 480.03125 376.675781 478.542969 376.183594 477.0625 375.652344 C 475.585938 375.125 474.121094 374.558594 472.671875 373.960938 C 471.222656 373.359375 469.789062 372.722656 468.371094 372.050781 C 466.949219 371.382812 465.550781 370.675781 464.164062 369.9375 C 462.78125 369.195312 461.417969 368.421875 460.070312 367.617188 C 458.722656 366.808594 457.398438 365.96875 456.09375 365.097656 C 454.789062 364.226562 453.507812 363.324219 452.246094 362.386719 C 450.984375 361.453125 449.75 360.488281 448.535156 359.492188 C 447.324219 358.496094 446.132812 357.472656 444.972656 356.417969 C 443.808594 355.363281 442.671875 354.28125 441.5625 353.171875 C 440.453125 352.0625 439.371094 350.925781 438.316406 349.765625 C 437.265625 348.601562 436.238281 347.414062 435.242188 346.199219 C 434.246094 344.988281 433.28125 343.75 432.347656 342.488281 C 431.414062 341.230469 430.507812 339.945312 429.636719 338.640625 C 428.765625 337.335938 427.925781 336.011719 427.121094 334.664062 C 426.3125 333.320312 425.539062 331.953125 424.800781 330.570312 C 424.058594 329.1875 423.355469 327.785156 422.683594 326.367188 C 422.011719 324.949219 421.378906 323.511719 420.777344 322.0625 C 420.175781 320.613281 419.613281 319.148438 419.082031 317.671875 C 418.554688 316.195312 418.0625 314.707031 417.605469 313.203125 C 417.152344 311.703125 416.730469 310.191406 416.351562 308.667969 C 415.96875 307.144531 415.625 305.613281 415.320312 304.074219 C 415.015625 302.535156 414.746094 300.992188 414.515625 299.4375 C 414.285156 297.886719 414.09375 296.328125 413.9375 294.765625 C 413.785156 293.207031 413.667969 291.640625 413.59375 290.074219 C 413.515625 288.503906 413.476562 286.9375 413.476562 285.367188 C 413.476562 283.796875 413.515625 282.230469 413.59375 280.664062 C 413.667969 279.09375 413.785156 277.53125 413.9375 275.96875 C 414.09375 274.40625 414.285156 272.851562 414.515625 271.296875 C 414.746094 269.746094 415.015625 268.199219 415.320312 266.660156 C 415.625 265.121094 415.96875 263.589844 416.351562 262.070312 C 416.730469 260.546875 417.152344 259.035156 417.605469 257.53125 C 418.0625 256.03125 418.554688 254.539062 419.082031 253.0625 C 419.613281 251.585938 420.175781 250.121094 420.777344 248.671875 C 421.378906 247.222656 422.011719 245.789062 422.683594 244.371094 C 423.355469 242.949219 424.058594 241.550781 424.800781 240.164062 C 425.539062 238.78125 426.3125 237.417969 427.121094 236.070312 C 427.925781 234.722656 428.765625 233.398438 429.636719 232.09375 C 430.507812 230.789062 431.414062 229.507812 432.347656 228.246094 C 433.28125 226.984375 434.246094 225.75 435.242188 224.535156 C 436.238281 223.324219 437.265625 222.132812 438.316406 220.972656 C 439.371094 219.808594 440.453125 218.671875 441.5625 217.5625 C 442.671875 216.453125 443.808594 215.371094 444.972656 214.316406 C 446.132812 213.265625 447.324219 212.238281 448.535156 211.242188 C 449.75 210.246094 450.984375 209.28125 452.246094 208.347656 C 453.507812 207.414062 454.789062 206.507812 456.09375 205.636719 C 457.398438 204.765625 458.722656 203.925781 460.070312 203.121094 C 461.417969 202.3125 462.78125 201.539062 464.164062 200.800781 C 465.550781 200.058594 466.949219 199.355469 468.371094 198.683594 C 469.789062 198.011719 471.222656 197.378906 472.671875 196.777344 C 474.121094 196.175781 475.585938 195.613281 477.0625 195.082031 C 478.542969 194.554688 480.03125 194.0625 481.53125 193.605469 C 483.035156 193.152344 484.546875 192.730469 486.070312 192.351562 C 487.589844 191.96875 489.121094 191.625 490.660156 191.320312 C 492.199219 191.011719 493.746094 190.746094 495.296875 190.515625 C 496.851562 190.285156 498.40625 190.09375 499.96875 189.9375 C 501.53125 189.785156 503.09375 189.667969 504.664062 189.59375 C 506.230469 189.515625 507.796875 189.476562 509.367188 189.476562 C 510.9375 189.476562 512.503906 189.515625 514.074219 189.59375 C 515.640625 189.667969 517.207031 189.785156 518.765625 189.9375 C 520.328125 190.09375 521.886719 190.285156 523.4375 190.515625 C 524.992188 190.746094 526.535156 191.011719 528.074219 191.320312 C 529.613281 191.625 531.144531 191.96875 532.667969 192.351562 C 534.191406 192.730469 535.703125 193.152344 537.203125 193.605469 C 538.707031 194.0625 540.195312 194.554688 541.671875 195.082031 C 543.148438 195.613281 544.613281 196.175781 546.0625 196.777344 C 547.515625 197.378906 548.949219 198.011719 550.367188 198.683594 C 551.785156 199.355469 553.1875 200.058594 554.570312 200.800781 C 555.953125 201.539062 557.320312 202.3125 558.664062 203.121094 C 560.011719 203.925781 561.335938 204.765625 562.640625 205.636719 C 563.945312 206.507812 565.230469 207.414062 566.488281 208.347656 C 567.75 209.28125 568.988281 210.246094 570.199219 211.242188 C 571.414062 212.238281 572.601562 213.265625 573.765625 214.316406 C 574.925781 215.371094 576.0625 216.453125 577.171875 217.5625 C 578.28125 218.671875 579.363281 219.808594 580.417969 220.972656 C 581.472656 222.132812 582.496094 223.324219 583.492188 224.535156 C 584.488281 225.75 585.453125 226.984375 586.386719 228.246094 C 587.324219 229.507812 588.226562 230.789062 589.097656 232.09375 C 589.96875 233.398438 590.808594 234.722656 591.617188 236.070312 C 592.421875 237.417969 593.195312 238.78125 593.9375 240.164062 C 594.675781 241.550781 595.382812 242.949219 596.050781 244.371094 C 596.722656 245.789062 597.359375 247.222656 597.960938 248.671875 C 598.558594 250.121094 599.125 251.585938 599.652344 253.0625 C 600.183594 254.539062 600.675781 256.03125 601.128906 257.53125 C 601.585938 259.035156 602.003906 260.546875 602.386719 262.070312 C 602.765625 263.589844 603.109375 265.121094 603.417969 266.660156 C 603.722656 268.199219 603.992188 269.746094 604.222656 271.296875 C 604.449219 272.851562 604.644531 274.40625 604.796875 275.96875 C 604.949219 277.53125 605.066406 279.09375 605.144531 280.664062 C 605.21875 282.230469 605.257812 283.796875 605.257812 285.367188 Z M 605.257812 285.367188 " fill-opacity="1" fill-rule="nonzero"/><path fill="#f4665c" d="M 509.367188 189.476562 C 456.410156 189.476562 413.476562 232.40625 413.476562 285.367188 L 605.257812 285.367188 C 605.257812 232.40625 562.328125 189.476562 509.367188 189.476562 Z M 509.367188 189.476562 " fill-opacity="1" fill-rule="nonzero"/><path fill="#f2f2f2" d="M 541.332031 285.367188 C 541.332031 286.414062 541.28125 287.460938 541.175781 288.5 C 541.074219 289.542969 540.921875 290.578125 540.71875 291.605469 C 540.511719 292.628906 540.257812 293.644531 539.957031 294.644531 C 539.652344 295.648438 539.300781 296.632812 538.898438 297.601562 C 538.496094 298.566406 538.050781 299.511719 537.558594 300.433594 C 537.0625 301.359375 536.527344 302.253906 535.945312 303.125 C 535.363281 303.996094 534.742188 304.835938 534.078125 305.644531 C 533.414062 306.453125 532.710938 307.230469 531.96875 307.96875 C 531.230469 308.710938 530.453125 309.410156 529.644531 310.074219 C 528.835938 310.742188 527.996094 311.363281 527.125 311.945312 C 526.253906 312.527344 525.359375 313.0625 524.4375 313.558594 C 523.511719 314.050781 522.566406 314.496094 521.601562 314.898438 C 520.632812 315.300781 519.648438 315.652344 518.648438 315.957031 C 517.644531 316.257812 516.628906 316.511719 515.605469 316.71875 C 514.578125 316.921875 513.542969 317.074219 512.5 317.175781 C 511.460938 317.28125 510.414062 317.332031 509.367188 317.332031 C 508.320312 317.332031 507.277344 317.28125 506.234375 317.175781 C 505.191406 317.074219 504.160156 316.921875 503.132812 316.71875 C 502.105469 316.511719 501.089844 316.257812 500.089844 315.957031 C 499.085938 315.652344 498.101562 315.300781 497.136719 314.898438 C 496.167969 314.496094 495.222656 314.050781 494.300781 313.558594 C 493.378906 313.0625 492.480469 312.527344 491.609375 311.945312 C 490.738281 311.363281 489.898438 310.742188 489.089844 310.074219 C 488.28125 309.410156 487.507812 308.710938 486.765625 307.96875 C 486.027344 307.230469 485.324219 306.453125 484.660156 305.644531 C 483.996094 304.835938 483.371094 303.996094 482.792969 303.125 C 482.210938 302.253906 481.671875 301.359375 481.179688 300.433594 C 480.683594 299.511719 480.238281 298.566406 479.835938 297.601562 C 479.4375 296.632812 479.085938 295.648438 478.78125 294.644531 C 478.476562 293.644531 478.222656 292.628906 478.019531 291.605469 C 477.8125 290.578125 477.660156 289.542969 477.558594 288.5 C 477.457031 287.460938 477.40625 286.414062 477.40625 285.367188 C 477.40625 284.320312 477.457031 283.277344 477.558594 282.234375 C 477.660156 281.191406 477.8125 280.160156 478.019531 279.132812 C 478.222656 278.105469 478.476562 277.089844 478.78125 276.089844 C 479.085938 275.085938 479.4375 274.101562 479.835938 273.136719 C 480.238281 272.167969 480.683594 271.222656 481.179688 270.300781 C 481.671875 269.378906 482.210938 268.480469 482.792969 267.609375 C 483.371094 266.738281 483.996094 265.898438 484.660156 265.089844 C 485.324219 264.28125 486.027344 263.507812 486.765625 262.765625 C 487.507812 262.027344 488.28125 261.324219 489.089844 260.660156 C 489.898438 259.996094 490.738281 259.371094 491.609375 258.792969 C 492.480469 258.210938 493.378906 257.671875 494.300781 257.179688 C 495.222656 256.683594 496.167969 256.238281 497.136719 255.835938 C 498.101562 255.4375 499.085938 255.085938 500.089844 254.78125 C 501.089844 254.476562 502.105469 254.222656 503.132812 254.019531 C 504.160156 253.8125 505.191406 253.660156 506.234375 253.558594 C 507.277344 253.457031 508.320312 253.40625 509.367188 253.40625 C 510.414062 253.40625 511.460938 253.457031 512.5 253.558594 C 513.542969 253.660156 514.578125 253.8125 515.605469 254.019531 C 516.628906 254.222656 517.644531 254.476562 518.648438 254.78125 C 519.648438 255.085938 520.632812 255.4375 521.601562 255.835938 C 522.566406 256.238281 523.511719 256.683594 524.4375 257.179688 C 525.359375 257.671875 526.253906 258.210938 527.125 258.792969 C 527.996094 259.371094 528.835938 259.996094 529.644531 260.660156 C 530.453125 261.324219 531.230469 262.027344 531.96875 262.765625 C 532.710938 263.507812 533.414062 264.28125 534.078125 265.089844 C 534.742188 265.898438 535.363281 266.738281 535.945312 267.609375 C 536.527344 268.480469 537.0625 269.378906 537.558594 270.300781 C 538.050781 271.222656 538.496094 272.167969 538.898438 273.136719 C 539.300781 274.101562 539.652344 275.085938 539.957031 276.089844 C 540.257812 277.089844 540.511719 278.105469 540.71875 279.132812 C 540.921875 280.160156 541.074219 281.191406 541.175781 282.234375 C 541.28125 283.277344 541.332031 284.320312 541.332031 285.367188 Z M 541.332031 285.367188 " fill-opacity="1" fill-rule="nonzero"/><path fill="#707cc0" d="M 605.257812 281.53125 L 544.953125 281.53125 C 543.035156 263.589844 527.8125 249.570312 509.367188 249.570312 C 490.921875 249.570312 475.703125 263.589844 473.78125 281.53125 L 413.476562 281.53125 L 413.476562 289.203125 L 473.78125 289.203125 C 475.703125 307.148438 490.921875 321.167969 509.367188 321.167969 C 527.8125 321.167969 543.035156 307.148438 544.953125 289.203125 L 605.257812 289.203125 Z M 509.367188 313.496094 C 493.859375 313.496094 481.238281 300.875 481.238281 285.367188 C 481.238281 269.859375 493.859375 257.238281 509.367188 257.238281 C 524.875 257.238281 537.496094 269.859375 537.496094 285.367188 C 537.496094 300.875 524.875 313.496094 509.367188 313.496094 Z M 509.367188 313.496094 " fill-opacity="1" fill-rule="nonzero"/><path fill="#40396e" d="M 605.257812 285.367188 C 605.257812 282.710938 605.121094 280.085938 604.910156 277.488281 C 600.898438 326.753906 559.671875 364.183594 509.367188 364.183594 C 459.066406 364.183594 417.835938 326.753906 413.824219 277.488281 C 413.617188 280.085938 413.476562 282.710938 413.476562 285.367188 C 413.476562 338.328125 456.410156 381.257812 509.367188 381.257812 C 562.328125 381.257812 605.257812 338.328125 605.257812 285.367188 Z M 605.257812 285.367188 " fill-opacity="0.35" fill-rule="nonzero"/><path fill="#707cc0" d="M 524.710938 285.367188 C 524.710938 286.375 524.613281 287.375 524.414062 288.359375 C 524.21875 289.347656 523.929688 290.308594 523.542969 291.238281 C 523.15625 292.171875 522.683594 293.054688 522.125 293.890625 C 521.566406 294.730469 520.929688 295.503906 520.21875 296.214844 C 519.503906 296.929688 518.730469 297.566406 517.890625 298.125 C 517.054688 298.683594 516.171875 299.15625 515.238281 299.542969 C 514.308594 299.929688 513.347656 300.21875 512.359375 300.414062 C 511.375 300.613281 510.375 300.710938 509.367188 300.710938 C 508.359375 300.710938 507.363281 300.613281 506.375 300.414062 C 505.386719 300.21875 504.425781 299.929688 503.496094 299.542969 C 502.566406 299.15625 501.683594 298.683594 500.84375 298.125 C 500.007812 297.566406 499.230469 296.929688 498.519531 296.214844 C 497.808594 295.503906 497.171875 294.730469 496.609375 293.890625 C 496.050781 293.054688 495.578125 292.171875 495.195312 291.238281 C 494.808594 290.308594 494.515625 289.347656 494.320312 288.359375 C 494.125 287.375 494.027344 286.375 494.027344 285.367188 C 494.027344 284.359375 494.125 283.363281 494.320312 282.375 C 494.515625 281.386719 494.808594 280.425781 495.195312 279.496094 C 495.578125 278.566406 496.050781 277.683594 496.609375 276.84375 C 497.171875 276.007812 497.808594 275.230469 498.519531 274.519531 C 499.230469 273.808594 500.007812 273.171875 500.84375 272.609375 C 501.683594 272.050781 502.566406 271.578125 503.496094 271.191406 C 504.425781 270.808594 505.386719 270.515625 506.375 270.320312 C 507.363281 270.125 508.359375 270.027344 509.367188 270.027344 C 510.375 270.027344 511.375 270.125 512.359375 270.320312 C 513.347656 270.515625 514.308594 270.808594 515.238281 271.191406 C 516.171875 271.578125 517.054688 272.050781 517.890625 272.609375 C 518.730469 273.171875 519.503906 273.808594 520.21875 274.519531 C 520.929688 275.230469 521.566406 276.007812 522.125 276.84375 C 522.683594 277.683594 523.15625 278.566406 523.542969 279.496094 C 523.929688 280.425781 524.21875 281.386719 524.414062 282.375 C 524.613281 283.363281 524.710938 284.359375 524.710938 285.367188 Z M 524.710938 285.367188 " fill-opacity="1" fill-rule="nonzero"/><path fill="#40396e" d="M 509.367188 385.09375 C 454.378906 385.09375 409.640625 340.359375 409.640625 285.367188 C 409.640625 230.378906 454.378906 185.640625 509.367188 185.640625 C 564.359375 185.640625 609.09375 230.378906 609.09375 285.367188 C 609.09375 340.359375 564.359375 385.09375 509.367188 385.09375 Z M 509.367188 193.3125 C 458.605469 193.3125 417.3125 234.605469 417.3125 285.367188 C 417.3125 336.128906 458.605469 377.421875 509.367188 377.421875 C 560.128906 377.421875 601.421875 336.128906 601.421875 285.367188 C 601.421875 234.605469 560.128906 193.3125 509.367188 193.3125 Z M 509.367188 193.3125 " fill-opacity="1" fill-rule="nonzero"/></svg>