<svg xmlns="http://www.w3.org/2000/svg" xmlns:xlink="http://www.w3.org/1999/xlink" width="500" zoomAndPan="magnify" viewBox="0 0 1024.5 576" height="768" preserveAspectRatio="xMidYMid meet" version="1.0"><defs><g/></defs><path stroke-linecap="butt" transform="matrix(2.114123, 0, 0, 2.114123, 230.540953, 178.065594)" fill="none" stroke-linejoin="miter" d="M 5.359263 39.419063 L -0.545963 40.403883 L -2.151608 26.477822 C 15.469838 23.270227 26.67979 23.081763 31.478248 25.912428 C 36.278554 28.744941 38.994663 33.465796 39.626574 40.076841 C 39.942529 50.235456 33.22247 57.282557 19.466397 61.21999 L 19.795287 78.207678 L 11.447411 78.828502 Z M 18.773513 49.080648 C 25.578565 46.795052 28.873002 44.001341 28.653126 40.695818 C 28.289131 38.728025 27.407781 37.45127 26.010925 36.867399 C 24.61407 36.285376 21.848073 36.381456 17.716632 37.159334 Z M 58.327073 29.831385 C 63.964383 29.831385 68.775775 31.758528 72.763097 35.610968 C 76.74857 39.461559 78.740383 44.097421 78.740383 49.518551 C 78.740383 54.961854 76.74857 59.61065 72.763097 63.461241 C 68.775775 67.313681 63.964383 69.240824 58.327073 69.240824 C 52.687914 69.240824 47.876522 67.313681 43.889201 63.461241 C 39.903728 59.61065 37.911915 54.961854 37.911915 49.518551 C 37.911915 44.097421 39.903728 39.461559 43.889201 35.610968 C 47.876522 31.758528 52.687914 29.831385 58.327073 29.831385 Z M 71.449387 45.034201 C 71.207339 46.176075 70.636402 47.171982 69.736576 48.023768 C 68.496774 49.189662 67.014924 49.773533 65.289179 49.773533 C 63.563434 49.773533 62.087127 49.195205 60.860259 48.042245 C 59.631544 46.887437 59.01811 45.496124 59.01811 43.866459 C 59.01811 42.238642 59.631544 40.852872 60.860259 39.710998 C 62.087127 38.569124 63.563434 37.998187 65.289179 37.998187 C 65.629155 37.998187 65.94511 38.022207 66.237046 38.070247 C 64.899316 37.390296 63.417466 37.05032 61.789649 37.05032 C 59.092017 37.05032 56.789792 37.97971 54.881126 39.838489 C 52.972459 41.699115 52.019049 43.940367 52.019049 46.565938 C 52.019049 49.189662 52.972459 51.42537 54.881126 53.273063 C 56.789792 55.118908 59.092017 56.042755 61.789649 56.042755 C 64.48728 56.042755 66.789506 55.118908 68.698172 53.273063 C 70.604991 51.42537 71.560249 49.189662 71.560249 46.565938 C 71.560249 46.030107 71.523295 45.520144 71.449387 45.034201 Z M 74.620028 32.929965 L 74.400152 28.081619 L 89.457001 25.457896 L 89.93001 42.809579 L 104.293974 24.874025 L 114.975486 34.169767 L 99.153693 52.325197 L 122.157468 67.308138 L 121.246556 77.98965 L 93.612462 59.069276 L 93.721476 76.858862 L 83.551775 78.06171 L 81.072171 32.201974 Z M 149.604945 49.372584 L 156.823881 56.881607 C 152.230517 63.492652 145.717399 66.809261 137.284529 66.833281 C 123.868432 66.833281 117.087399 60.746981 116.941432 48.570685 C 117.039359 35.252515 123.066533 28.580497 135.022953 28.556477 C 144.525638 28.726464 150.140776 32.833885 151.866521 40.87874 L 134.586898 54.804801 C 141.609978 55.580832 146.617226 53.770093 149.604945 49.372584 Z M 128.862746 50.721399 L 141.294023 41.059814 C 137.502557 37.780159 133.687072 37.438336 129.847566 40.039887 C 126.372056 43.32139 126.043166 46.881894 128.862746 50.721399 Z M 156.421084 77.551747 L 155.290296 27.60861 C 175.583506 24.619043 186.848889 31.873085 189.084597 49.372584 C 190.688395 66.968162 179.799941 76.361833 156.421084 77.551747 Z M 166.117776 64.100543 C 175.838488 63.224737 179.788855 58.254443 177.965182 49.189662 C 176.483332 40.536917 172.266897 36.636437 165.315877 37.488224 Z M 220.216373 49.372584 L 227.433462 56.881607 C 222.840097 63.492652 216.32698 66.809261 207.89411 66.833281 C 194.478013 66.833281 187.69698 60.746981 187.55286 48.570685 C 187.64894 35.252515 193.676114 28.580497 205.634382 28.556477 C 215.137066 28.726464 220.750357 32.833885 222.476102 40.87874 L 205.196479 54.804801 C 212.219559 55.580832 217.226807 53.770093 220.216373 49.372584 Z M 199.472326 50.721399 L 211.903604 41.059814 C 208.112138 37.780159 204.296652 37.438336 200.457147 40.039887 C 196.981636 43.32139 196.652747 46.881894 199.472326 50.721399 Z M 249.742505 47.94986 L 264.178529 69.896755 L 252.512196 77.259811 L 242.70649 59.980188 L 232.645803 77.113844 L 222.073305 69.713834 L 236.76431 49.553658 L 227.030665 32.420002 L 235.343435 26.004813 L 244.129214 39.383956 L 254.481837 25.202914 L 262.136828 26.806711 Z M 249.742505 47.94986 " stroke="#40396e" stroke-width="5.600002" stroke-opacity="1" stroke-miterlimit="4"/><g fill="#ffe500" fill-opacity="1"><g transform="translate(230.540953, 336.624825)"><g><path d="M 11.328125 -75.21875 L -1.15625 -73.140625 L -4.546875 -102.578125 C 32.703125 -109.359375 56.398438 -109.753906 66.546875 -103.765625 C 76.703125 -97.785156 82.445312 -87.804688 83.78125 -73.828125 C 84.445312 -52.359375 70.238281 -37.460938 41.15625 -29.140625 L 41.84375 6.78125 L 24.203125 8.09375 Z M 39.6875 -54.796875 C 54.070312 -59.628906 61.035156 -65.539062 60.578125 -72.53125 C 59.804688 -76.6875 57.941406 -79.378906 54.984375 -80.609375 C 52.035156 -81.847656 46.191406 -81.644531 37.453125 -80 Z M 39.6875 -54.796875 "/></g></g></g><g fill="#ffe500" fill-opacity="1"><g transform="translate(313.310535, 336.624825)"><g><path d="M 40.546875 -95.5 C 52.460938 -95.5 62.632812 -91.425781 71.0625 -83.28125 C 79.488281 -75.132812 83.703125 -65.332031 83.703125 -53.875 C 83.703125 -42.363281 79.488281 -32.535156 71.0625 -24.390625 C 62.632812 -16.242188 52.460938 -12.171875 40.546875 -12.171875 C 28.617188 -12.171875 18.441406 -16.242188 10.015625 -24.390625 C 1.585938 -32.535156 -2.625 -42.363281 -2.625 -53.875 C -2.625 -65.332031 1.585938 -75.132812 10.015625 -83.28125 C 18.441406 -91.425781 28.617188 -95.5 40.546875 -95.5 Z M 68.28125 -63.359375 C 67.769531 -60.941406 66.5625 -58.832031 64.65625 -57.03125 C 62.039062 -54.5625 58.910156 -53.328125 55.265625 -53.328125 C 51.609375 -53.328125 48.484375 -54.546875 45.890625 -56.984375 C 43.296875 -59.429688 42 -62.375 42 -65.8125 C 42 -69.257812 43.296875 -72.191406 45.890625 -74.609375 C 48.484375 -77.023438 51.609375 -78.234375 55.265625 -78.234375 C 55.984375 -78.234375 56.648438 -78.179688 57.265625 -78.078125 C 54.441406 -79.515625 51.304688 -80.234375 47.859375 -80.234375 C 42.160156 -80.234375 37.289062 -78.265625 33.25 -74.328125 C 29.21875 -70.398438 27.203125 -65.660156 27.203125 -60.109375 C 27.203125 -54.566406 29.21875 -49.84375 33.25 -45.9375 C 37.289062 -42.03125 42.160156 -40.078125 47.859375 -40.078125 C 53.566406 -40.078125 58.4375 -42.03125 62.46875 -45.9375 C 66.5 -49.84375 68.515625 -54.566406 68.515625 -60.109375 C 68.515625 -61.242188 68.4375 -62.328125 68.28125 -63.359375 Z M 68.28125 -63.359375 "/></g></g></g><g fill="#ffe500" fill-opacity="1"><g transform="translate(396.773718, 336.624825)"><g><path d="M -8.484375 -88.9375 L -8.9375 -99.1875 L 22.890625 -104.734375 L 23.890625 -68.0625 L 54.265625 -105.96875 L 76.84375 -86.328125 L 43.390625 -47.9375 L 92.03125 -16.265625 L 90.09375 6.3125 L 31.671875 -33.6875 L 31.90625 3.9375 L 10.40625 6.46875 L 5.15625 -90.484375 Z M -8.484375 -88.9375 "/></g></g></g><g fill="#ffe500" fill-opacity="1"><g transform="translate(478.233168, 336.624825)"><g><path d="M 68.59375 -54.1875 L 83.859375 -38.3125 C 74.140625 -24.332031 60.367188 -17.316406 42.546875 -17.265625 C 14.179688 -17.265625 -0.15625 -30.132812 -0.46875 -55.875 C -0.257812 -84.03125 12.484375 -98.132812 37.765625 -98.1875 C 57.859375 -97.832031 69.726562 -89.148438 73.375 -72.140625 L 36.84375 -42.703125 C 51.6875 -41.054688 62.269531 -44.882812 68.59375 -54.1875 Z M 24.734375 -51.328125 L 51.015625 -71.75 C 43.003906 -78.6875 34.941406 -79.40625 26.828125 -73.90625 C 19.472656 -66.96875 18.773438 -59.441406 24.734375 -51.328125 Z M 24.734375 -51.328125 "/></g></g></g><g fill="#ffe500" fill-opacity="1"><g transform="translate(558.305418, 336.624825)"><g><path d="M 2.921875 5.390625 L 0.546875 -100.1875 C 43.441406 -106.507812 67.253906 -91.175781 71.984375 -54.1875 C 75.378906 -16.976562 52.359375 2.878906 2.921875 5.390625 Z M 23.4375 -23.046875 C 43.988281 -24.890625 52.335938 -35.394531 48.484375 -54.5625 C 45.347656 -72.851562 36.429688 -81.101562 21.734375 -79.3125 Z M 23.4375 -23.046875 "/></g></g></g><g fill="#ffe500" fill-opacity="1"><g transform="translate(627.511271, 336.624825)"><g><path d="M 68.59375 -54.1875 L 83.859375 -38.3125 C 74.140625 -24.332031 60.367188 -17.316406 42.546875 -17.265625 C 14.179688 -17.265625 -0.15625 -30.132812 -0.46875 -55.875 C -0.257812 -84.03125 12.484375 -98.132812 37.765625 -98.1875 C 57.859375 -97.832031 69.726562 -89.148438 73.375 -72.140625 L 36.84375 -42.703125 C 51.6875 -41.054688 62.269531 -44.882812 68.59375 -54.1875 Z M 24.734375 -51.328125 L 51.015625 -71.75 C 43.003906 -78.6875 34.941406 -79.40625 26.828125 -73.90625 C 19.472656 -66.96875 18.773438 -59.441406 24.734375 -51.328125 Z M 24.734375 -51.328125 "/></g></g></g><g fill="#ffe500" fill-opacity="1"><g transform="translate(707.583522, 336.624825)"><g><path d="M 50.9375 -57.1875 L 81.46875 -10.796875 L 56.796875 4.78125 L 36.0625 -31.75 L 14.796875 4.46875 L -7.546875 -11.171875 L 23.5 -53.796875 L 2.921875 -90.015625 L 20.5 -103.578125 L 39.078125 -75.296875 L 60.96875 -105.28125 L 77.15625 -101.890625 Z M 50.9375 -57.1875 "/></g></g></g></svg>